<?xml version="1.0" encoding="utf-8"?>
<svg xmlns="http://www.w3.org/2000/svg" viewBox="0 0 300 80" xmlns:bx="https://boxy-svg.com" width="300px" height="80px"><defs><bx:export><bx:file format="png"/><bx:file format="png" path="Untitled 2.png"/><bx:file format="svg"/><bx:file format="svg" path="Untitled 2.svg"/></bx:export></defs><g stroke-width="2.00" fill="none" stroke-linecap="butt" transform="matrix(0.336208, 0, -0.056277, 0.256509, 2.779541, -0.431867)" style=""><path stroke="#999999" vector-effect="non-scaling-stroke" d=" M 133.67 136.22 Q 122.17 136.90 117.49 138.49 Q 111.00 140.71 105.09 142.60 C 102.58 143.40 100.25 145.53 97.60 146.68 Q 94.02 148.24 92.14 149.91 C 88.33 153.32 84.80 154.99 81.00 158.99 Q 72.51 167.93 67.78 179.20 C 62.35 192.16 62.32 207.14 67.19 220.18 Q 67.58 221.23 70.02 226.04 Q 70.25 226.49 70.05 226.95 C 69.45 228.30 68.57 229.65 68.07 230.97 Q 65.15 238.54 61.91 245.26 C 59.12 251.07 56.91 256.55 55.31 260.78 C 52.15 269.15 58.67 270.66 64.70 267.67 Q 69.04 265.53 71.82 264.54 C 77.34 262.57 80.22 260.88 86.61 257.68 C 89.50 256.23 92.45 255.79 95.07 254.11 A 1.95 1.93 42.0 0 1 96.97 254.02 Q 102.64 256.87 105.45 258.25 C 107.73 259.37 110.32 259.54 112.30 260.71 Q 113.97 261.70 117.33 262.50 C 131.56 265.90 147.29 266.25 161.56 262.33 Q 170.01 260.01 172.50 258.76 Q 179.43 255.32 183.27 253.37 C 185.79 252.09 187.60 250.33 189.72 249.19 Q 191.77 248.09 194.30 245.75 Q 205.42 235.44 211.30 222.44 Q 211.51 221.96 212.04 221.93 Q 224.95 221.26 237.65 216.42 Q 241.08 215.11 243.66 213.69 C 246.58 212.08 249.89 210.33 252.03 211.49 Q 262.64 217.26 273.93 221.56 Q 275.73 222.25 282.04 225.57 C 284.44 226.84 286.32 226.91 288.61 225.72 C 291.92 223.99 291.74 219.66 290.27 216.67 Q 289.75 215.59 284.92 205.81 C 284.13 204.19 283.75 201.59 282.88 199.82 Q 279.93 193.81 275.93 185.41 A 1.33 1.32 -49.6 0 1 275.86 184.48 C 277.20 180.12 277.66 177.69 279.41 174.10 C 281.07 170.71 281.32 165.77 281.87 161.25 Q 282.25 158.12 282.05 155.25 Q 281.20 143.09 276.07 132.07 C 274.84 129.44 272.78 126.75 271.67 124.93 Q 269.71 121.74 268.00 119.96 Q 257.56 109.11 249.47 104.40 Q 232.17 94.33 210.73 93.13 Q 182.66 91.56 159.64 106.25 C 152.38 110.89 144.87 118.29 140.07 125.05 Q 137.58 128.56 134.33 135.76 Q 134.14 136.19 133.67 136.22"/><path stroke="#808080" vector-effect="non-scaling-stroke" d=" M 411.83 223.58 Q 411.00 224.79 406.73 227.41 C 396.82 233.47 384.01 231.81 377.17 222.16 Q 374.69 218.66 374.24 217.35 Q 369.21 202.82 373.38 188.55 Q 374.81 183.68 376.52 181.47 Q 379.71 177.37 381.95 175.70 C 389.29 170.24 400.83 170.77 408.04 176.24 C 410.63 178.20 414.49 182.06 415.49 185.48 Q 415.64 186.00 416.18 186.00 L 460.05 186.00 A 0.64 0.64 0.0 0 0 460.66 185.16 Q 459.43 181.46 458.35 177.43 C 456.78 171.59 454.67 168.19 452.14 163.12 C 449.21 157.28 446.02 153.89 441.22 149.14 Q 438.60 146.55 435.52 144.71 C 431.43 142.28 426.72 138.95 422.01 137.58 Q 417.84 136.36 415.17 135.31 Q 412.19 134.14 408.19 133.97 C 403.79 133.80 396.79 132.66 391.57 132.83 Q 370.31 133.53 352.86 146.10 Q 347.88 149.68 344.91 153.40 C 341.25 157.96 337.51 163.61 335.10 169.38 Q 332.62 175.29 332.47 175.68 Q 330.38 181.29 329.33 189.07 Q 326.92 206.84 331.64 224.37 C 333.17 230.05 336.95 237.46 339.50 242.04 C 342.53 247.49 347.57 251.66 352.14 256.20 Q 353.19 257.24 356.12 259.13 Q 365.73 265.33 376.33 267.74 C 380.34 268.66 384.43 269.69 388.52 269.89 Q 400.51 270.48 412.29 268.12 C 416.58 267.25 421.98 265.16 425.14 263.85 Q 435.73 259.46 443.60 250.86 C 446.91 247.25 449.36 245.08 451.30 241.38 C 453.67 236.86 455.50 234.04 456.71 230.76 Q 459.15 224.13 460.56 217.83 A 0.63 0.63 0.0 0 0 459.95 217.07 Q 428.44 216.82 418.50 217.14 C 414.82 217.25 413.02 221.85 411.83 223.58"/><path stroke="#808080" vector-effect="non-scaling-stroke" d=" M 518.48 217.14 A 0.68 0.68 0.0 0 1 519.16 216.46 L 558.32 216.46 A 0.68 0.68 0.0 0 1 559.00 217.14 L 559.00 268.30 A 0.68 0.68 0.0 0 0 559.68 268.98 L 600.32 268.98 A 0.68 0.68 0.0 0 0 601.00 268.30 L 601.00 134.66 A 0.68 0.68 0.0 0 0 600.32 133.98 L 559.69 133.98 A 0.68 0.68 0.0 0 0 559.01 134.66 L 559.01 181.78 A 0.68 0.68 0.0 0 1 558.33 182.46 L 519.19 182.46 A 0.68 0.68 0.0 0 1 518.51 181.78 L 518.51 134.69 A 0.68 0.68 0.0 0 0 517.83 134.01 L 476.70 134.01 A 0.68 0.68 0.0 0 0 476.02 134.69 L 476.02 268.29 A 0.68 0.68 0.0 0 0 476.70 268.97 L 517.80 268.97 A 0.68 0.68 0.0 0 0 518.48 268.29 L 518.48 217.14"/><path stroke="#808080" vector-effect="non-scaling-stroke" d=" M 661.46 249.46 A 0.64 0.63 6.9 0 1 662.08 248.98 L 706.98 248.98 A 0.60 0.59 -87.4 0 1 707.57 249.63 Q 707.42 251.28 707.69 251.98 Q 710.16 258.48 712.08 264.94 Q 712.54 266.49 713.57 268.45 A 1.00 0.97 75.8 0 0 714.44 268.99 L 756.97 268.99 A 0.66 0.66 0.0 0 0 757.61 268.15 Q 756.47 264.05 754.99 260.00 Q 739.38 217.43 723.93 174.80 Q 723.93 174.79 719.52 163.06 C 717.18 156.81 715.52 150.91 712.96 144.87 C 711.44 141.31 710.86 137.91 708.68 134.45 Q 708.40 134.00 707.86 134.00 L 661.07 134.00 A 1.31 1.30 9.8 0 0 659.84 134.86 L 611.06 268.18 A 0.59 0.59 0.0 0 0 611.62 268.97 L 655.19 268.97 A 0.92 0.91 -2.0 0 0 656.11 267.99 C 656.04 267.15 656.03 266.47 656.35 265.63 Q 659.49 257.46 661.46 249.46"/><path stroke="#808080" vector-effect="non-scaling-stroke" d=" M 837.65 268.97 A 0.32 0.32 0.0 0 0 837.97 268.65 L 837.97 167.87 A 0.32 0.32 0.0 0 1 838.29 167.55 L 873.67 167.55 A 0.32 0.32 0.0 0 0 873.99 167.23 L 873.99 134.34 A 0.32 0.32 0.0 0 0 873.67 134.02 L 760.36 134.02 A 0.32 0.32 0.0 0 0 760.04 134.34 L 760.04 167.22 A 0.32 0.32 0.0 0 0 760.36 167.54 L 795.22 167.54 A 0.32 0.32 0.0 0 1 795.54 167.86 L 795.54 268.65 A 0.32 0.32 0.0 0 0 795.86 268.97 L 837.65 268.97"/><path stroke="#999999" vector-effect="non-scaling-stroke" d=" M 263.95 183.71 Q 269.34 170.27 269.94 168.20 Q 272.02 161.01 270.69 150.82 Q 270.32 147.97 269.10 144.14 Q 267.46 138.94 266.86 137.64 Q 264.88 133.30 260.29 127.94 Q 250.84 116.92 238.29 110.65 C 235.14 109.08 230.97 108.07 227.86 106.92 Q 224.54 105.69 219.71 105.00 Q 209.15 103.49 204.76 103.59 Q 196.00 103.78 187.03 106.04 C 180.73 107.63 176.45 109.80 170.71 112.31 C 166.60 114.11 163.82 116.50 159.03 120.10 Q 155.99 122.39 153.75 125.18 Q 149.38 130.61 147.32 134.03 A 1.44 1.44 0.0 0 0 148.41 136.20 Q 158.76 137.23 166.15 139.95 Q 167.18 140.33 170.81 141.41 Q 173.12 142.10 175.38 143.13 Q 186.62 148.25 196.79 157.58 C 198.75 159.37 200.71 162.07 202.71 164.36 Q 205.60 167.67 206.90 169.89 Q 214.31 182.55 215.74 196.15 C 216.25 200.92 215.59 206.33 215.10 210.59 A 0.47 0.47 0.0 0 0 215.70 211.09 C 218.48 210.26 221.83 210.02 224.05 209.49 C 229.37 208.22 233.74 206.06 238.54 204.10 Q 240.49 203.30 242.68 201.68 Q 248.17 197.60 254.83 200.92 Q 263.70 205.34 265.46 206.23 C 268.17 207.58 270.55 208.31 274.02 209.59 A 0.43 0.43 0.0 0 0 274.59 209.15 C 274.31 206.42 272.73 205.54 272.13 203.23 C 271.18 199.57 267.62 194.37 265.93 188.87 Q 265.28 186.75 264.03 184.69 Q 263.74 184.22 263.95 183.71"/><path stroke="#999999" vector-effect="non-scaling-stroke" d=" M 97.21 242.20 Q 100.18 243.50 106.58 246.84 C 109.74 248.48 112.27 248.98 115.45 250.29 Q 118.06 251.36 122.23 252.31 Q 142.31 256.85 161.91 251.12 Q 166.93 249.65 172.47 246.82 C 181.17 242.37 186.94 238.17 192.25 232.28 Q 207.25 215.65 204.46 193.71 Q 204.13 191.07 203.07 188.01 C 201.50 183.47 200.59 180.43 197.68 175.82 Q 197.58 175.67 194.70 171.39 Q 192.81 168.59 189.74 165.76 Q 177.92 154.83 164.81 150.61 C 161.73 149.62 159.34 149.44 156.74 148.55 C 152.01 146.95 146.08 146.97 141.00 146.49 Q 138.16 146.22 127.58 147.58 Q 123.24 148.14 119.10 149.38 Q 112.74 151.27 110.83 152.11 Q 106.80 153.88 106.05 154.18 Q 102.72 155.50 101.46 156.57 C 98.93 158.72 96.25 159.68 93.65 162.32 C 90.08 165.95 85.64 169.76 82.99 173.69 Q 71.77 190.32 75.38 209.95 C 76.28 214.85 79.11 220.24 81.06 224.43 Q 82.26 227.02 81.43 228.40 Q 78.76 232.88 77.54 236.42 C 75.36 242.81 73.28 246.38 70.28 252.70 Q 70.03 253.22 70.57 253.03 Q 75.66 251.28 77.86 250.11 Q 87.33 245.09 96.27 242.15 Q 96.74 242.00 97.21 242.20"/><path stroke="#808080" vector-effect="non-scaling-stroke" d=" M 684.30 217.02 Q 693.28 217.05 696.27 216.93 A 0.46 0.46 0.0 0 0 696.66 216.27 Q 696.30 215.55 695.89 214.44 Q 693.29 207.46 684.75 180.49 Q 684.64 180.15 684.42 180.15 Q 684.20 180.15 684.09 180.48 Q 675.38 207.40 672.73 214.37 Q 672.32 215.47 671.95 216.19 A 0.46 0.46 0.0 0 0 672.34 216.85 Q 675.33 216.99 684.30 217.02"/></g><g fill="#000000" transform="matrix(0.336208, 0, -0.056277, 0.256509, 2.779541, -0.28822)" style=""><path d=" M 411.83 223.58 C 413.02 221.85 414.82 217.25 418.50 217.14 Q 428.44 216.82 459.95 217.07 A 0.63 0.63 0.0 0 1 460.56 217.83 Q 459.15 224.13 456.71 230.76 C 455.50 234.04 453.67 236.86 451.30 241.38 C 449.36 245.08 446.91 247.25 443.60 250.86 Q 435.73 259.46 425.14 263.85 C 421.98 265.16 416.58 267.25 412.29 268.12 Q 400.51 270.48 388.52 269.89 C 384.43 269.69 380.34 268.66 376.33 267.74 Q 365.73 265.33 356.12 259.13 Q 353.19 257.24 352.14 256.20 C 347.57 251.66 342.53 247.49 339.50 242.04 C 336.95 237.46 333.17 230.05 331.64 224.37 Q 326.92 206.84 329.33 189.07 Q 330.38 181.29 332.47 175.68 Q 332.62 175.29 335.10 169.38 C 337.51 163.61 341.25 157.96 344.91 153.40 Q 347.88 149.68 352.86 146.10 Q 370.31 133.53 391.57 132.83 C 396.79 132.66 403.79 133.80 408.19 133.97 Q 412.19 134.14 415.17 135.31 Q 417.84 136.36 422.01 137.58 C 426.72 138.95 431.43 142.28 435.52 144.71 Q 438.60 146.55 441.22 149.14 C 446.02 153.89 449.21 157.28 452.14 163.12 C 454.67 168.19 456.78 171.59 458.35 177.43 Q 459.43 181.46 460.66 185.16 A 0.64 0.64 0.0 0 1 460.05 186.00 L 416.18 186.00 Q 415.64 186.00 415.49 185.48 C 414.49 182.06 410.63 178.20 408.04 176.24 C 400.83 170.77 389.29 170.24 381.95 175.70 Q 379.71 177.37 376.52 181.47 Q 374.81 183.68 373.38 188.55 Q 369.21 202.82 374.24 217.35 Q 374.69 218.66 377.17 222.16 C 384.01 231.81 396.82 233.47 406.73 227.41 Q 411.00 224.79 411.83 223.58 Z"/><path d=" M 518.48 217.14 L 518.48 268.29 A 0.68 0.68 0.0 0 1 517.80 268.97 L 476.70 268.97 A 0.68 0.68 0.0 0 1 476.02 268.29 L 476.02 134.69 A 0.68 0.68 0.0 0 1 476.70 134.01 L 517.83 134.01 A 0.68 0.68 0.0 0 1 518.51 134.69 L 518.51 181.78 A 0.68 0.68 0.0 0 0 519.19 182.46 L 558.33 182.46 A 0.68 0.68 0.0 0 0 559.01 181.78 L 559.01 134.66 A 0.68 0.68 0.0 0 1 559.69 133.98 L 600.32 133.98 A 0.68 0.68 0.0 0 1 601.00 134.66 L 601.00 268.30 A 0.68 0.68 0.0 0 1 600.32 268.98 L 559.68 268.98 A 0.68 0.68 0.0 0 1 559.00 268.30 L 559.00 217.14 A 0.68 0.68 0.0 0 0 558.32 216.46 L 519.16 216.46 A 0.68 0.68 0.0 0 0 518.48 217.14 Z"/><path d=" M 661.46 249.46 Q 659.49 257.46 656.35 265.63 C 656.03 266.47 656.04 267.15 656.11 267.99 A 0.92 0.91 -2.0 0 1 655.19 268.97 L 611.62 268.97 A 0.59 0.59 0.0 0 1 611.06 268.18 L 659.84 134.86 A 1.31 1.30 9.8 0 1 661.07 134.00 L 707.86 134.00 Q 708.40 134.00 708.68 134.45 C 710.86 137.91 711.44 141.31 712.96 144.87 C 715.52 150.91 717.18 156.81 719.52 163.06 Q 723.93 174.79 723.93 174.80 Q 739.38 217.43 754.99 260.00 Q 756.47 264.05 757.61 268.15 A 0.66 0.66 0.0 0 1 756.97 268.99 L 714.44 268.99 A 1.00 0.97 75.8 0 1 713.57 268.45 Q 712.54 266.49 712.08 264.94 Q 710.16 258.48 707.69 251.98 Q 707.42 251.28 707.57 249.63 A 0.60 0.59 -87.4 0 0 706.98 248.98 L 662.08 248.98 A 0.64 0.63 6.9 0 0 661.46 249.46 Z M 684.30 217.02 Q 693.28 217.05 696.27 216.93 A 0.46 0.46 0.0 0 0 696.66 216.27 Q 696.30 215.55 695.89 214.44 Q 693.29 207.46 684.75 180.49 Q 684.64 180.15 684.42 180.15 Q 684.20 180.15 684.09 180.48 Q 675.38 207.40 672.73 214.37 Q 672.32 215.47 671.95 216.19 A 0.46 0.46 0.0 0 0 672.34 216.85 Q 675.33 216.99 684.30 217.02 Z"/><path d=" M 837.65 268.97 L 795.86 268.97 A 0.32 0.32 0.0 0 1 795.54 268.65 L 795.54 167.86 A 0.32 0.32 0.0 0 0 795.22 167.54 L 760.36 167.54 A 0.32 0.32 0.0 0 1 760.04 167.22 L 760.04 134.34 A 0.32 0.32 0.0 0 1 760.36 134.02 L 873.67 134.02 A 0.32 0.32 0.0 0 1 873.99 134.34 L 873.99 167.23 A 0.32 0.32 0.0 0 1 873.67 167.55 L 838.29 167.55 A 0.32 0.32 0.0 0 0 837.97 167.87 L 837.97 268.65 A 0.32 0.32 0.0 0 1 837.65 268.97 Z"/></g><g fill="#93dc63" transform="matrix(0.336208, 0, -0.056277, 0.256509, 1.027484, -4.679374)" style=""><path d=" M 846.27 87.01 A 31.70 31.70 0.0 0 1 814.57 118.71 A 31.70 31.70 0.0 0 1 782.87 87.01 A 31.70 31.70 0.0 0 1 814.57 55.31 A 31.70 31.70 0.0 0 1 846.27 87.01 Z M 814.2580 100.7353 A 13.83 12.22 91.5 0 0 826.8358 87.2299 A 13.83 12.22 91.5 0 0 814.9820 73.0847 A 13.83 12.22 91.5 0 0 802.4042 86.5901 A 13.83 12.22 91.5 0 0 814.2580 100.7353 Z"/><path d=" M 597.48 95.65 L 584.24 96.60 A 0.77 0.76 87.9 0 1 583.42 95.83 L 583.42 83.42 A 0.94 0.94 0.0 0 1 584.36 82.48 L 614.11 82.48 A 0.77 0.76 87.5 0 1 614.87 83.18 Q 615.30 88.76 615.48 94.50 C 615.75 103.34 611.73 106.64 605.86 112.05 C 601.92 115.67 597.74 117.14 592.52 117.61 C 590.21 117.83 587.87 118.59 585.15 118.51 Q 578.59 118.31 572.65 116.07 Q 569.09 114.73 567.29 113.27 C 563.29 110.05 558.78 106.96 557.42 101.55 C 556.63 98.39 555.16 95.35 554.84 91.79 C 553.61 77.99 558.09 65.42 570.96 58.95 C 576.15 56.34 581.36 56.16 587.26 56.01 Q 593.33 55.85 600.31 59.02 Q 607.75 62.40 611.53 68.35 Q 612.15 69.33 613.38 72.58 Q 614.32 75.07 615.34 76.71 A 0.80 0.79 76.6 0 1 614.60 77.92 Q 606.85 77.24 598.04 77.66 C 595.89 77.76 593.91 77.53 591.81 75.91 Q 586.43 71.74 579.39 75.67 Q 577.65 76.64 576.34 79.01 Q 573.28 84.51 574.55 91.18 C 575.13 94.25 578.30 100.45 582.10 100.94 Q 587.93 101.68 593.48 100.20 Q 596.10 99.50 597.81 96.16 Q 598.10 95.60 597.48 95.65 Z"/><path d=" M 715.49 74.50 C 710.86 76.70 709.20 79.68 708.86 84.74 C 708.51 90.13 708.87 91.93 711.32 96.88 C 712.54 99.34 715.71 100.41 717.76 100.45 Q 724.41 100.57 728.47 95.51 Q 729.10 94.73 731.00 94.72 Q 731.05 94.72 747.52 94.42 Q 749.05 94.39 748.79 95.90 Q 747.19 105.11 740.31 111.18 C 733.05 117.57 724.37 119.13 714.87 118.13 Q 711.94 117.82 709.31 116.80 C 707.55 116.11 704.25 115.53 702.23 113.95 Q 695.71 108.88 692.51 102.53 C 687.45 92.49 688.23 81.07 692.96 70.69 Q 694.15 68.09 697.43 64.17 C 700.25 60.79 706.07 57.95 710.83 56.89 C 720.97 54.63 731.39 56.17 739.59 62.48 C 742.68 64.86 749.86 75.45 748.77 79.57 Q 748.65 80.01 748.20 80.01 L 729.51 80.01 A 1.59 1.58 -15.2 0 1 728.14 79.23 Q 725.83 75.34 721.67 73.98 Q 718.65 72.99 715.49 74.50 Z"/><path d=" M 348.44 89.48 Q 347.97 88.56 347.97 89.59 L 347.97 116.96 A 1.02 1.02 0.0 0 1 346.95 117.98 L 329.00 117.98 A 0.42 0.41 -0.0 0 1 328.58 117.57 L 328.58 57.73 A 1.21 1.21 0.0 0 1 329.79 56.52 L 351.58 56.52 A 0.87 0.86 79.8 0 1 352.39 57.09 L 365.02 91.31 A 0.79 0.79 0.0 0 0 366.51 91.31 L 378.60 58.27 A 2.67 2.67 0.0 0 1 381.11 56.51 L 401.78 56.51 A 1.19 1.18 0.0 0 1 402.97 57.69 L 402.97 116.99 A 1.03 1.03 0.0 0 1 401.94 118.02 L 383.78 118.02 A 0.20 0.19 -0.0 0 1 383.58 117.83 L 383.58 88.44 Q 383.58 87.80 383.32 88.38 Q 382.93 89.26 382.78 89.75 Q 380.42 97.64 379.38 100.71 Q 375.75 111.46 374.34 116.59 A 1.91 1.91 0.0 0 1 372.50 118.00 L 357.90 118.00 A 0.73 0.73 0.0 0 1 357.19 117.45 Q 354.72 108.24 350.02 95.54 C 349.33 93.65 349.30 91.16 348.44 89.48 Z"/><rect x="411.54" y="56.53" width="19.42" height="61.48" rx="0.63"/><path d=" M 476.20 82.82 Q 477.18 84.31 478.23 85.75 Q 478.52 86.16 478.70 86.22 Q 479.51 86.48 479.52 85.59 L 479.53 57.29 A 0.74 0.74 0.0 0 1 480.27 56.55 L 498.15 56.55 A 0.79 0.79 0.0 0 1 498.94 57.34 L 498.94 117.20 A 0.84 0.83 0.0 0 1 498.10 118.03 L 480.99 118.03 A 3.00 3.00 0.0 0 1 478.50 116.70 Q 471.79 106.68 465.22 96.36 Q 463.04 92.95 462.24 91.75 Q 461.26 90.26 460.22 88.82 Q 459.92 88.41 459.74 88.35 Q 458.93 88.09 458.92 88.98 L 458.91 117.28 A 0.74 0.74 0.0 0 1 458.17 118.02 L 440.29 118.02 A 0.79 0.79 0.0 0 1 439.50 117.23 L 439.50 57.37 A 0.84 0.83 0.0 0 1 440.34 56.54 L 457.45 56.54 A 3.00 3.00 0.0 0 1 459.94 57.87 Q 466.65 67.89 473.23 78.21 Q 475.40 81.62 476.20 82.82 Z"/><path d=" M 527.79 93.97 Q 527.05 93.97 527.05 94.71 L 527.05 101.44 Q 527.05 102.52 528.12 102.52 L 547.34 102.52 Q 547.85 102.52 548.25 102.84 Q 551.03 105.10 550.24 108.21 Q 549.35 111.65 549.32 112.01 Q 549.05 114.84 548.85 116.80 Q 548.73 117.99 547.54 117.99 L 507.99 117.99 A 0.47 0.46 -90.0 0 1 507.53 117.52 L 507.53 57.11 A 0.62 0.62 0.0 0 1 508.15 56.49 L 548.01 56.49 A 0.94 0.94 0.0 0 1 548.95 57.43 L 548.95 71.03 A 0.96 0.95 -0.0 0 1 547.99 71.98 L 528.23 71.98 Q 527.00 71.98 527.00 73.22 L 527.00 78.41 Q 527.00 79.58 528.16 79.58 L 545.64 79.58 A 0.88 0.88 0.0 0 1 546.52 80.46 L 546.52 92.29 Q 546.52 93.97 544.83 93.97 L 527.79 93.97 Z"/><rect x="756.58" y="56.58" width="19.40" height="61.44" rx="1.07"/><ellipse cx="0.00" cy="0.00" transform="translate(862.84,109.25) rotate(-0.3)" rx="10.97" ry="9.57" style="visibility: hidden;"/><path d="M 878.211 106.892 C 878.211 113.587 872.111 119.015 864.585 119.015 C 857.061 119.015 850.96 113.587 850.96 106.892 C 850.96 100.197 857.061 94.768 864.585 94.768 C 872.111 94.768 878.211 100.197 878.211 106.892 Z M 864.451 112.141 C 867.351 112.209 869.772 109.895 869.858 106.975 C 869.944 104.056 867.663 101.634 864.763 101.566 C 861.863 101.498 859.442 103.811 859.356 106.731 C 859.27 109.652 861.552 112.073 864.451 112.141 Z" style="fill:#93dc63;"/><path d="M 683.993 87.73 C 683.993 105.238 669.8 119.43 652.293 119.43 C 634.785 119.43 620.593 105.238 620.593 87.73 C 620.593 70.223 634.785 56.03 652.293 56.03 C 669.8 56.03 683.993 70.223 683.993 87.73 Z M 651.981 101.456 C 658.727 101.632 664.358 95.586 664.558 87.95 C 664.758 80.315 659.451 73.982 652.705 73.805 C 645.958 73.628 640.327 79.675 640.127 87.31 C 639.927 94.946 645.234 101.279 651.981 101.456 Z"/></g><path fill="#333333" d="M 40.303 34.391 C 41.305 33.16 42.145 32.245 42.836 31.644 C 44.83 29.91 47.771 28.013 50.474 26.822 C 56.184 24.31 62.156 23.188 68.388 23.456 C 73.149 23.662 77.278 24.625 80.779 26.347 C 82.415 27.152 84.2 28.484 86.133 30.339 C 86.45 30.643 86.768 31.068 87.087 31.613 C 87.359 32.081 87.899 32.77 88.165 33.445 C 88.901 35.329 89.136 37.311 88.871 39.391 C 88.808 39.881 88.675 40.394 88.472 40.93 C 88.033 42.089 87.671 43.356 86.922 44.226 C 86.132 45.147 85.84 45.771 85.145 46.889 C 85.097 46.968 85.086 47.053 85.115 47.126 C 85.697 48.563 86.206 49.796 86.641 50.824 C 86.834 51.277 86.816 51.945 86.99 52.36 C 87.706 54.032 88.102 54.96 88.178 55.146 C 88.504 55.912 88.32 57.024 87.111 57.467 C 86.273 57.772 85.646 57.755 84.911 57.429 C 83.621 56.86 82.787 56.518 82.409 56.4 C 80.04 55.664 77.775 54.804 75.613 53.817 C 74.959 53.52 73.747 53.968 72.675 54.381 C 72.043 54.624 71.318 54.857 70.501 55.081 C 67.472 55.909 64.499 56.38 61.58 56.495 C 61.46 56.5 61.367 56.544 61.303 56.625 C 59.497 58.849 57.155 60.842 54.278 62.605 C 53.622 63.005 53.043 63.299 52.544 63.488 C 51.767 63.78 51.058 64.231 50.137 64.559 C 49.204 64.893 47.896 65.354 46.213 65.942 C 45.611 66.155 44.317 66.46 42.333 66.858 C 37.317 67.864 32.05 67.774 27.456 66.901 C 26.734 66.765 26.204 66.611 25.867 66.442 C 25.266 66.143 24.403 66.098 23.702 65.812 C 23.119 65.576 22.252 65.214 21.089 64.726 C 20.901 64.648 20.654 64.657 20.443 64.75 C 19.468 65.18 18.454 65.293 17.399 65.666 C 15.073 66.486 14.008 66.919 12.041 67.425 C 11.386 67.594 10.524 67.861 9.468 68.228 C 7.278 68.995 5.167 68.607 6.703 66.46 C 7.475 65.375 8.531 63.969 9.792 62.479 C 10.771 61.33 11.732 60.109 12.671 58.814 C 12.912 58.475 13.286 58.129 13.564 57.782 C 13.622 57.704 13.636 57.626 13.604 57.549 C 13.236 56.726 13.029 56.226 12.98 56.046 C 12.078 52.702 12.931 48.859 15.486 45.535 C 16.968 43.607 18.832 41.879 21.067 40.35 C 22.571 39.324 23.851 38.896 25.323 38.021 C 25.805 37.735 26.478 37.46 27.339 37.193 C 28.296 36.897 29.199 36.351 30.088 36.145 C 31.484 35.823 32.953 35.471 34.488 35.092 C 35.597 34.82 37.452 34.626 40.056 34.51 C 40.164 34.505 40.245 34.465 40.303 34.391 Z M 81.184 46.691 C 82.896 44.393 83.858 43.067 84.071 42.713 C 84.806 41.483 85.216 39.998 85.301 38.254 C 85.324 37.767 85.272 37.196 85.142 36.541 C 84.969 35.652 84.841 35.096 84.754 34.874 C 84.473 34.132 83.919 33.302 83.092 32.386 C 81.388 30.501 79.246 29.023 76.668 27.951 C 75.698 27.548 74.352 27.289 73.371 26.994 C 72.673 26.784 71.796 26.619 70.739 26.501 C 68.429 26.243 66.78 26.123 65.792 26.139 C 63.821 26.172 61.788 26.381 59.693 26.768 C 57.486 27.176 55.925 27.733 53.855 28.376 C 52.369 28.839 51.3 29.451 49.49 30.375 C 48.722 30.766 48.035 31.201 47.424 31.677 C 46.244 32.606 45.359 33.363 44.766 33.948 C 44.533 34.18 44.668 34.477 45.014 34.505 C 47.295 34.68 49.211 35.001 50.766 35.466 C 50.982 35.531 51.475 35.656 52.252 35.84 C 52.741 35.959 53.222 36.106 53.688 36.282 C 56.016 37.157 58.145 38.393 60.075 39.988 C 60.633 40.448 61.14 41.141 61.683 41.728 C 62.207 42.293 62.573 42.766 62.781 43.146 C 63.967 45.311 64.465 47.557 64.275 49.882 C 64.178 51.106 63.651 52.493 63.248 53.585 C 63.217 53.671 63.308 53.738 63.421 53.714 C 64.402 53.502 65.542 53.44 66.318 53.304 C 68.178 52.979 69.769 52.424 71.493 51.921 C 71.96 51.784 72.469 51.577 73.021 51.301 C 74.405 50.603 75.781 50.538 77.149 51.106 C 78.972 51.861 80.063 52.315 80.424 52.467 C 81.259 52.814 82.018 53.001 83.112 53.33 C 83.206 53.356 83.32 53.296 83.329 53.217 C 83.389 52.517 82.908 52.291 82.836 51.698 C 82.722 50.759 81.818 49.425 81.559 48.015 C 81.492 47.652 81.358 47.295 81.156 46.942 C 81.108 46.862 81.117 46.778 81.184 46.691 Z M 21.835 61.694 C 22.45 61.916 23.411 62.313 24.722 62.885 C 25.697 63.306 26.519 63.434 27.511 63.769 C 28.058 63.952 28.776 64.125 29.675 64.288 C 34.008 65.064 38.476 64.962 43.082 63.982 C 44.264 63.731 45.529 63.363 46.877 62.88 C 50.052 61.738 52.23 60.66 54.344 59.149 C 58.33 56.306 60.422 53.008 60.62 49.256 C 60.645 48.804 60.596 48.317 60.473 47.794 C 60.201 46.63 60.066 45.85 59.347 44.667 C 59.331 44.641 59.079 44.263 58.595 43.532 C 58.277 43.052 57.826 42.57 57.244 42.087 C 55.004 40.218 52.494 38.922 49.715 38.2 C 48.736 37.947 47.941 37.9 47.119 37.672 C 45.615 37.262 43.622 37.267 41.947 37.144 C 41.319 37.098 39.791 37.191 37.367 37.423 C 36.379 37.519 35.391 37.673 34.416 37.885 C 32.921 38.209 31.942 38.442 31.484 38.585 C 30.514 38.888 29.939 39.064 29.76 39.116 C 28.965 39.342 28.404 39.547 28.08 39.73 C 27.111 40.281 26.155 40.527 25.135 41.205 C 23.73 42.135 22.023 43.113 20.911 44.12 C 17.771 46.964 16.24 50.065 16.308 53.422 C 16.334 54.679 16.986 56.061 17.403 57.136 C 17.579 57.579 17.542 57.919 17.309 58.155 C 16.541 58.92 15.952 59.606 15.544 60.212 C 14.453 61.851 13.555 62.766 12.19 64.388 C 12.113 64.477 12.141 64.504 12.266 64.472 C 13.474 64.173 14.345 63.924 14.883 63.724 C 17.192 62.865 19.41 62.184 21.521 61.681 C 21.633 61.656 21.737 61.66 21.835 61.694 Z" style=""/></svg>