<?xml version="1.0" encoding="utf-8"?>
<svg xmlns="http://www.w3.org/2000/svg" viewBox="0 0 500 130" xmlns:bx="https://boxy-svg.com" width="500px" height="130px"><defs><bx:export><bx:file format="png"/><bx:file format="png" path="Untitled 2.png"/><bx:file format="svg"/></bx:export></defs><g stroke-width="2.00" fill="none" stroke-linecap="butt" transform="matrix(0.558739, 0, -0.093525, 0.426288, 6.604054, -1.693406)" style=""><path stroke="#999999" vector-effect="non-scaling-stroke" d=" M 133.67 136.22 Q 122.17 136.90 117.49 138.49 Q 111.00 140.71 105.09 142.60 C 102.58 143.40 100.25 145.53 97.60 146.68 Q 94.02 148.24 92.14 149.91 C 88.33 153.32 84.80 154.99 81.00 158.99 Q 72.51 167.93 67.78 179.20 C 62.35 192.16 62.32 207.14 67.19 220.18 Q 67.58 221.23 70.02 226.04 Q 70.25 226.49 70.05 226.95 C 69.45 228.30 68.57 229.65 68.07 230.97 Q 65.15 238.54 61.91 245.26 C 59.12 251.07 56.91 256.55 55.31 260.78 C 52.15 269.15 58.67 270.66 64.70 267.67 Q 69.04 265.53 71.82 264.54 C 77.34 262.57 80.22 260.88 86.61 257.68 C 89.50 256.23 92.45 255.79 95.07 254.11 A 1.95 1.93 42.0 0 1 96.97 254.02 Q 102.64 256.87 105.45 258.25 C 107.73 259.37 110.32 259.54 112.30 260.71 Q 113.97 261.70 117.33 262.50 C 131.56 265.90 147.29 266.25 161.56 262.33 Q 170.01 260.01 172.50 258.76 Q 179.43 255.32 183.27 253.37 C 185.79 252.09 187.60 250.33 189.72 249.19 Q 191.77 248.09 194.30 245.75 Q 205.42 235.44 211.30 222.44 Q 211.51 221.96 212.04 221.93 Q 224.95 221.26 237.65 216.42 Q 241.08 215.11 243.66 213.69 C 246.58 212.08 249.89 210.33 252.03 211.49 Q 262.64 217.26 273.93 221.56 Q 275.73 222.25 282.04 225.57 C 284.44 226.84 286.32 226.91 288.61 225.72 C 291.92 223.99 291.74 219.66 290.27 216.67 Q 289.75 215.59 284.92 205.81 C 284.13 204.19 283.75 201.59 282.88 199.82 Q 279.93 193.81 275.93 185.41 A 1.33 1.32 -49.6 0 1 275.86 184.48 C 277.20 180.12 277.66 177.69 279.41 174.10 C 281.07 170.71 281.32 165.77 281.87 161.25 Q 282.25 158.12 282.05 155.25 Q 281.20 143.09 276.07 132.07 C 274.84 129.44 272.78 126.75 271.67 124.93 Q 269.71 121.74 268.00 119.96 Q 257.56 109.11 249.47 104.40 Q 232.17 94.33 210.73 93.13 Q 182.66 91.56 159.64 106.25 C 152.38 110.89 144.87 118.29 140.07 125.05 Q 137.58 128.56 134.33 135.76 Q 134.14 136.19 133.67 136.22"/><path stroke="#808080" vector-effect="non-scaling-stroke" d=" M 411.83 223.58 Q 411.00 224.79 406.73 227.41 C 396.82 233.47 384.01 231.81 377.17 222.16 Q 374.69 218.66 374.24 217.35 Q 369.21 202.82 373.38 188.55 Q 374.81 183.68 376.52 181.47 Q 379.71 177.37 381.95 175.70 C 389.29 170.24 400.83 170.77 408.04 176.24 C 410.63 178.20 414.49 182.06 415.49 185.48 Q 415.64 186.00 416.18 186.00 L 460.05 186.00 A 0.64 0.64 0.0 0 0 460.66 185.16 Q 459.43 181.46 458.35 177.43 C 456.78 171.59 454.67 168.19 452.14 163.12 C 449.21 157.28 446.02 153.89 441.22 149.14 Q 438.60 146.55 435.52 144.71 C 431.43 142.28 426.72 138.95 422.01 137.58 Q 417.84 136.36 415.17 135.31 Q 412.19 134.14 408.19 133.97 C 403.79 133.80 396.79 132.66 391.57 132.83 Q 370.31 133.53 352.86 146.10 Q 347.88 149.68 344.91 153.40 C 341.25 157.96 337.51 163.61 335.10 169.38 Q 332.62 175.29 332.47 175.68 Q 330.38 181.29 329.33 189.07 Q 326.92 206.84 331.64 224.37 C 333.17 230.05 336.95 237.46 339.50 242.04 C 342.53 247.49 347.57 251.66 352.14 256.20 Q 353.19 257.24 356.12 259.13 Q 365.73 265.33 376.33 267.74 C 380.34 268.66 384.43 269.69 388.52 269.89 Q 400.51 270.48 412.29 268.12 C 416.58 267.25 421.98 265.16 425.14 263.85 Q 435.73 259.46 443.60 250.86 C 446.91 247.25 449.36 245.08 451.30 241.38 C 453.67 236.86 455.50 234.04 456.71 230.76 Q 459.15 224.13 460.56 217.83 A 0.63 0.63 0.0 0 0 459.95 217.07 Q 428.44 216.82 418.50 217.14 C 414.82 217.25 413.02 221.85 411.83 223.58"/><path stroke="#808080" vector-effect="non-scaling-stroke" d=" M 518.48 217.14 A 0.68 0.68 0.0 0 1 519.16 216.46 L 558.32 216.46 A 0.68 0.68 0.0 0 1 559.00 217.14 L 559.00 268.30 A 0.68 0.68 0.0 0 0 559.68 268.98 L 600.32 268.98 A 0.68 0.68 0.0 0 0 601.00 268.30 L 601.00 134.66 A 0.68 0.68 0.0 0 0 600.32 133.98 L 559.69 133.98 A 0.68 0.68 0.0 0 0 559.01 134.66 L 559.01 181.78 A 0.68 0.68 0.0 0 1 558.33 182.46 L 519.19 182.46 A 0.68 0.68 0.0 0 1 518.51 181.78 L 518.51 134.69 A 0.68 0.68 0.0 0 0 517.83 134.01 L 476.70 134.01 A 0.68 0.68 0.0 0 0 476.02 134.69 L 476.02 268.29 A 0.68 0.68 0.0 0 0 476.70 268.97 L 517.80 268.97 A 0.68 0.68 0.0 0 0 518.48 268.29 L 518.48 217.14"/><path stroke="#808080" vector-effect="non-scaling-stroke" d=" M 661.46 249.46 A 0.64 0.63 6.9 0 1 662.08 248.98 L 706.98 248.98 A 0.60 0.59 -87.4 0 1 707.57 249.63 Q 707.42 251.28 707.69 251.98 Q 710.16 258.48 712.08 264.94 Q 712.54 266.49 713.57 268.45 A 1.00 0.97 75.8 0 0 714.44 268.99 L 756.97 268.99 A 0.66 0.66 0.0 0 0 757.61 268.15 Q 756.47 264.05 754.99 260.00 Q 739.38 217.43 723.93 174.80 Q 723.93 174.79 719.52 163.06 C 717.18 156.81 715.52 150.91 712.96 144.87 C 711.44 141.31 710.86 137.91 708.68 134.45 Q 708.40 134.00 707.86 134.00 L 661.07 134.00 A 1.31 1.30 9.8 0 0 659.84 134.86 L 611.06 268.18 A 0.59 0.59 0.0 0 0 611.62 268.97 L 655.19 268.97 A 0.92 0.91 -2.0 0 0 656.11 267.99 C 656.04 267.15 656.03 266.47 656.35 265.63 Q 659.49 257.46 661.46 249.46"/><path stroke="#808080" vector-effect="non-scaling-stroke" d=" M 837.65 268.97 A 0.32 0.32 0.0 0 0 837.97 268.65 L 837.97 167.87 A 0.32 0.32 0.0 0 1 838.29 167.55 L 873.67 167.55 A 0.32 0.32 0.0 0 0 873.99 167.23 L 873.99 134.34 A 0.32 0.32 0.0 0 0 873.67 134.02 L 760.36 134.02 A 0.32 0.32 0.0 0 0 760.04 134.34 L 760.04 167.22 A 0.32 0.32 0.0 0 0 760.36 167.54 L 795.22 167.54 A 0.32 0.32 0.0 0 1 795.54 167.86 L 795.54 268.65 A 0.32 0.32 0.0 0 0 795.86 268.97 L 837.65 268.97"/><path stroke="#999999" vector-effect="non-scaling-stroke" d=" M 263.95 183.71 Q 269.34 170.27 269.94 168.20 Q 272.02 161.01 270.69 150.82 Q 270.32 147.97 269.10 144.14 Q 267.46 138.94 266.86 137.64 Q 264.88 133.30 260.29 127.94 Q 250.84 116.92 238.29 110.65 C 235.14 109.08 230.97 108.07 227.86 106.92 Q 224.54 105.69 219.71 105.00 Q 209.15 103.49 204.76 103.59 Q 196.00 103.78 187.03 106.04 C 180.73 107.63 176.45 109.80 170.71 112.31 C 166.60 114.11 163.82 116.50 159.03 120.10 Q 155.99 122.39 153.75 125.18 Q 149.38 130.61 147.32 134.03 A 1.44 1.44 0.0 0 0 148.41 136.20 Q 158.76 137.23 166.15 139.95 Q 167.18 140.33 170.81 141.41 Q 173.12 142.10 175.38 143.13 Q 186.62 148.25 196.79 157.58 C 198.75 159.37 200.71 162.07 202.71 164.36 Q 205.60 167.67 206.90 169.89 Q 214.31 182.55 215.74 196.15 C 216.25 200.92 215.59 206.33 215.10 210.59 A 0.47 0.47 0.0 0 0 215.70 211.09 C 218.48 210.26 221.83 210.02 224.05 209.49 C 229.37 208.22 233.74 206.06 238.54 204.10 Q 240.49 203.30 242.68 201.68 Q 248.17 197.60 254.83 200.92 Q 263.70 205.34 265.46 206.23 C 268.17 207.58 270.55 208.31 274.02 209.59 A 0.43 0.43 0.0 0 0 274.59 209.15 C 274.31 206.42 272.73 205.54 272.13 203.23 C 271.18 199.57 267.62 194.37 265.93 188.87 Q 265.28 186.75 264.03 184.69 Q 263.74 184.22 263.95 183.71"/><path stroke="#999999" vector-effect="non-scaling-stroke" d=" M 97.21 242.20 Q 100.18 243.50 106.58 246.84 C 109.74 248.48 112.27 248.98 115.45 250.29 Q 118.06 251.36 122.23 252.31 Q 142.31 256.85 161.91 251.12 Q 166.93 249.65 172.47 246.82 C 181.17 242.37 186.94 238.17 192.25 232.28 Q 207.25 215.65 204.46 193.71 Q 204.13 191.07 203.07 188.01 C 201.50 183.47 200.59 180.43 197.68 175.82 Q 197.58 175.67 194.70 171.39 Q 192.81 168.59 189.74 165.76 Q 177.92 154.83 164.81 150.61 C 161.73 149.62 159.34 149.44 156.74 148.55 C 152.01 146.95 146.08 146.97 141.00 146.49 Q 138.16 146.22 127.58 147.58 Q 123.24 148.14 119.10 149.38 Q 112.74 151.27 110.83 152.11 Q 106.80 153.88 106.05 154.18 Q 102.72 155.50 101.46 156.57 C 98.93 158.72 96.25 159.68 93.65 162.32 C 90.08 165.95 85.64 169.76 82.99 173.69 Q 71.77 190.32 75.38 209.95 C 76.28 214.85 79.11 220.24 81.06 224.43 Q 82.26 227.02 81.43 228.40 Q 78.76 232.88 77.54 236.42 C 75.36 242.81 73.28 246.38 70.28 252.70 Q 70.03 253.22 70.57 253.03 Q 75.66 251.28 77.86 250.11 Q 87.33 245.09 96.27 242.15 Q 96.74 242.00 97.21 242.20"/><path stroke="#808080" vector-effect="non-scaling-stroke" d=" M 684.30 217.02 Q 693.28 217.05 696.27 216.93 A 0.46 0.46 0.0 0 0 696.66 216.27 Q 696.30 215.55 695.89 214.44 Q 693.29 207.46 684.75 180.49 Q 684.64 180.15 684.42 180.15 Q 684.20 180.15 684.09 180.48 Q 675.38 207.40 672.73 214.37 Q 672.32 215.47 671.95 216.19 A 0.46 0.46 0.0 0 0 672.34 216.85 Q 675.33 216.99 684.30 217.02"/></g><g fill="#000000" transform="matrix(0.558739, 0, -0.093525, 0.426288, 6.604054, -1.454685)" style=""><path d=" M 411.83 223.58 C 413.02 221.85 414.82 217.25 418.50 217.14 Q 428.44 216.82 459.95 217.07 A 0.63 0.63 0.0 0 1 460.56 217.83 Q 459.15 224.13 456.71 230.76 C 455.50 234.04 453.67 236.86 451.30 241.38 C 449.36 245.08 446.91 247.25 443.60 250.86 Q 435.73 259.46 425.14 263.85 C 421.98 265.16 416.58 267.25 412.29 268.12 Q 400.51 270.48 388.52 269.89 C 384.43 269.69 380.34 268.66 376.33 267.74 Q 365.73 265.33 356.12 259.13 Q 353.19 257.24 352.14 256.20 C 347.57 251.66 342.53 247.49 339.50 242.04 C 336.95 237.46 333.17 230.05 331.64 224.37 Q 326.92 206.84 329.33 189.07 Q 330.38 181.29 332.47 175.68 Q 332.62 175.29 335.10 169.38 C 337.51 163.61 341.25 157.96 344.91 153.40 Q 347.88 149.68 352.86 146.10 Q 370.31 133.53 391.57 132.83 C 396.79 132.66 403.79 133.80 408.19 133.97 Q 412.19 134.14 415.17 135.31 Q 417.84 136.36 422.01 137.58 C 426.72 138.95 431.43 142.28 435.52 144.71 Q 438.60 146.55 441.22 149.14 C 446.02 153.89 449.21 157.28 452.14 163.12 C 454.67 168.19 456.78 171.59 458.35 177.43 Q 459.43 181.46 460.66 185.16 A 0.64 0.64 0.0 0 1 460.05 186.00 L 416.18 186.00 Q 415.64 186.00 415.49 185.48 C 414.49 182.06 410.63 178.20 408.04 176.24 C 400.83 170.77 389.29 170.24 381.95 175.70 Q 379.71 177.37 376.52 181.47 Q 374.81 183.68 373.38 188.55 Q 369.21 202.82 374.24 217.35 Q 374.69 218.66 377.17 222.16 C 384.01 231.81 396.82 233.47 406.73 227.41 Q 411.00 224.79 411.83 223.58 Z"/><path d=" M 518.48 217.14 L 518.48 268.29 A 0.68 0.68 0.0 0 1 517.80 268.97 L 476.70 268.97 A 0.68 0.68 0.0 0 1 476.02 268.29 L 476.02 134.69 A 0.68 0.68 0.0 0 1 476.70 134.01 L 517.83 134.01 A 0.68 0.68 0.0 0 1 518.51 134.69 L 518.51 181.78 A 0.68 0.68 0.0 0 0 519.19 182.46 L 558.33 182.46 A 0.68 0.68 0.0 0 0 559.01 181.78 L 559.01 134.66 A 0.68 0.68 0.0 0 1 559.69 133.98 L 600.32 133.98 A 0.68 0.68 0.0 0 1 601.00 134.66 L 601.00 268.30 A 0.68 0.68 0.0 0 1 600.32 268.98 L 559.68 268.98 A 0.68 0.68 0.0 0 1 559.00 268.30 L 559.00 217.14 A 0.68 0.68 0.0 0 0 558.32 216.46 L 519.16 216.46 A 0.68 0.68 0.0 0 0 518.48 217.14 Z"/><path d=" M 661.46 249.46 Q 659.49 257.46 656.35 265.63 C 656.03 266.47 656.04 267.15 656.11 267.99 A 0.92 0.91 -2.0 0 1 655.19 268.97 L 611.62 268.97 A 0.59 0.59 0.0 0 1 611.06 268.18 L 659.84 134.86 A 1.31 1.30 9.8 0 1 661.07 134.00 L 707.86 134.00 Q 708.40 134.00 708.68 134.45 C 710.86 137.91 711.44 141.31 712.96 144.87 C 715.52 150.91 717.18 156.81 719.52 163.06 Q 723.93 174.79 723.93 174.80 Q 739.38 217.43 754.99 260.00 Q 756.47 264.05 757.61 268.15 A 0.66 0.66 0.0 0 1 756.97 268.99 L 714.44 268.99 A 1.00 0.97 75.8 0 1 713.57 268.45 Q 712.54 266.49 712.08 264.94 Q 710.16 258.48 707.69 251.98 Q 707.42 251.28 707.57 249.63 A 0.60 0.59 -87.4 0 0 706.98 248.98 L 662.08 248.98 A 0.64 0.63 6.9 0 0 661.46 249.46 Z M 684.30 217.02 Q 693.28 217.05 696.27 216.93 A 0.46 0.46 0.0 0 0 696.66 216.27 Q 696.30 215.55 695.89 214.44 Q 693.29 207.46 684.75 180.49 Q 684.64 180.15 684.42 180.15 Q 684.20 180.15 684.09 180.48 Q 675.38 207.40 672.73 214.37 Q 672.32 215.47 671.95 216.19 A 0.46 0.46 0.0 0 0 672.34 216.85 Q 675.33 216.99 684.30 217.02 Z"/><path d=" M 837.65 268.97 L 795.86 268.97 A 0.32 0.32 0.0 0 1 795.54 268.65 L 795.54 167.86 A 0.32 0.32 0.0 0 0 795.22 167.54 L 760.36 167.54 A 0.32 0.32 0.0 0 1 760.04 167.22 L 760.04 134.34 A 0.32 0.32 0.0 0 1 760.36 134.02 L 873.67 134.02 A 0.32 0.32 0.0 0 1 873.99 134.34 L 873.99 167.23 A 0.32 0.32 0.0 0 1 873.67 167.55 L 838.29 167.55 A 0.32 0.32 0.0 0 0 837.97 167.87 L 837.97 268.65 A 0.32 0.32 0.0 0 1 837.65 268.97 Z"/></g><g fill="#93dc63" transform="matrix(0.558739, 0, -0.093525, 0.426288, 3.692343, -8.752269)" style=""><path d=" M 846.27 87.01 A 31.70 31.70 0.0 0 1 814.57 118.71 A 31.70 31.70 0.0 0 1 782.87 87.01 A 31.70 31.70 0.0 0 1 814.57 55.31 A 31.70 31.70 0.0 0 1 846.27 87.01 Z M 814.2580 100.7353 A 13.83 12.22 91.5 0 0 826.8358 87.2299 A 13.83 12.22 91.5 0 0 814.9820 73.0847 A 13.83 12.22 91.5 0 0 802.4042 86.5901 A 13.83 12.22 91.5 0 0 814.2580 100.7353 Z"/><path d=" M 597.48 95.65 L 584.24 96.60 A 0.77 0.76 87.9 0 1 583.42 95.83 L 583.42 83.42 A 0.94 0.94 0.0 0 1 584.36 82.48 L 614.11 82.48 A 0.77 0.76 87.5 0 1 614.87 83.18 Q 615.30 88.76 615.48 94.50 C 615.75 103.34 611.73 106.64 605.86 112.05 C 601.92 115.67 597.74 117.14 592.52 117.61 C 590.21 117.83 587.87 118.59 585.15 118.51 Q 578.59 118.31 572.65 116.07 Q 569.09 114.73 567.29 113.27 C 563.29 110.05 558.78 106.96 557.42 101.55 C 556.63 98.39 555.16 95.35 554.84 91.79 C 553.61 77.99 558.09 65.42 570.96 58.95 C 576.15 56.34 581.36 56.16 587.26 56.01 Q 593.33 55.85 600.31 59.02 Q 607.75 62.40 611.53 68.35 Q 612.15 69.33 613.38 72.58 Q 614.32 75.07 615.34 76.71 A 0.80 0.79 76.6 0 1 614.60 77.92 Q 606.85 77.24 598.04 77.66 C 595.89 77.76 593.91 77.53 591.81 75.91 Q 586.43 71.74 579.39 75.67 Q 577.65 76.64 576.34 79.01 Q 573.28 84.51 574.55 91.18 C 575.13 94.25 578.30 100.45 582.10 100.94 Q 587.93 101.68 593.48 100.20 Q 596.10 99.50 597.81 96.16 Q 598.10 95.60 597.48 95.65 Z"/><path d=" M 715.49 74.50 C 710.86 76.70 709.20 79.68 708.86 84.74 C 708.51 90.13 708.87 91.93 711.32 96.88 C 712.54 99.34 715.71 100.41 717.76 100.45 Q 724.41 100.57 728.47 95.51 Q 729.10 94.73 731.00 94.72 Q 731.05 94.72 747.52 94.42 Q 749.05 94.39 748.79 95.90 Q 747.19 105.11 740.31 111.18 C 733.05 117.57 724.37 119.13 714.87 118.13 Q 711.94 117.82 709.31 116.80 C 707.55 116.11 704.25 115.53 702.23 113.95 Q 695.71 108.88 692.51 102.53 C 687.45 92.49 688.23 81.07 692.96 70.69 Q 694.15 68.09 697.43 64.17 C 700.25 60.79 706.07 57.95 710.83 56.89 C 720.97 54.63 731.39 56.17 739.59 62.48 C 742.68 64.86 749.86 75.45 748.77 79.57 Q 748.65 80.01 748.20 80.01 L 729.51 80.01 A 1.59 1.58 -15.2 0 1 728.14 79.23 Q 725.83 75.34 721.67 73.98 Q 718.65 72.99 715.49 74.50 Z"/><path d=" M 348.44 89.48 Q 347.97 88.56 347.97 89.59 L 347.97 116.96 A 1.02 1.02 0.0 0 1 346.95 117.98 L 329.00 117.98 A 0.42 0.41 -0.0 0 1 328.58 117.57 L 328.58 57.73 A 1.21 1.21 0.0 0 1 329.79 56.52 L 351.58 56.52 A 0.87 0.86 79.8 0 1 352.39 57.09 L 365.02 91.31 A 0.79 0.79 0.0 0 0 366.51 91.31 L 378.60 58.27 A 2.67 2.67 0.0 0 1 381.11 56.51 L 401.78 56.51 A 1.19 1.18 0.0 0 1 402.97 57.69 L 402.97 116.99 A 1.03 1.03 0.0 0 1 401.94 118.02 L 383.78 118.02 A 0.20 0.19 -0.0 0 1 383.58 117.83 L 383.58 88.44 Q 383.58 87.80 383.32 88.38 Q 382.93 89.26 382.78 89.75 Q 380.42 97.64 379.38 100.71 Q 375.75 111.46 374.34 116.59 A 1.91 1.91 0.0 0 1 372.50 118.00 L 357.90 118.00 A 0.73 0.73 0.0 0 1 357.19 117.45 Q 354.72 108.24 350.02 95.54 C 349.33 93.65 349.30 91.16 348.44 89.48 Z"/><rect x="411.54" y="56.53" width="19.42" height="61.48" rx="0.63"/><path d=" M 476.20 82.82 Q 477.18 84.31 478.23 85.75 Q 478.52 86.16 478.70 86.22 Q 479.51 86.48 479.52 85.59 L 479.53 57.29 A 0.74 0.74 0.0 0 1 480.27 56.55 L 498.15 56.55 A 0.79 0.79 0.0 0 1 498.94 57.34 L 498.94 117.20 A 0.84 0.83 0.0 0 1 498.10 118.03 L 480.99 118.03 A 3.00 3.00 0.0 0 1 478.50 116.70 Q 471.79 106.68 465.22 96.36 Q 463.04 92.95 462.24 91.75 Q 461.26 90.26 460.22 88.82 Q 459.92 88.41 459.74 88.35 Q 458.93 88.09 458.92 88.98 L 458.91 117.28 A 0.74 0.74 0.0 0 1 458.17 118.02 L 440.29 118.02 A 0.79 0.79 0.0 0 1 439.50 117.23 L 439.50 57.37 A 0.84 0.83 0.0 0 1 440.34 56.54 L 457.45 56.54 A 3.00 3.00 0.0 0 1 459.94 57.87 Q 466.65 67.89 473.23 78.21 Q 475.40 81.62 476.20 82.82 Z"/><path d=" M 527.79 93.97 Q 527.05 93.97 527.05 94.71 L 527.05 101.44 Q 527.05 102.52 528.12 102.52 L 547.34 102.52 Q 547.85 102.52 548.25 102.84 Q 551.03 105.10 550.24 108.21 Q 549.35 111.65 549.32 112.01 Q 549.05 114.84 548.85 116.80 Q 548.73 117.99 547.54 117.99 L 507.99 117.99 A 0.47 0.46 -90.0 0 1 507.53 117.52 L 507.53 57.11 A 0.62 0.62 0.0 0 1 508.15 56.49 L 548.01 56.49 A 0.94 0.94 0.0 0 1 548.95 57.43 L 548.95 71.03 A 0.96 0.95 -0.0 0 1 547.99 71.98 L 528.23 71.98 Q 527.00 71.98 527.00 73.22 L 527.00 78.41 Q 527.00 79.58 528.16 79.58 L 545.64 79.58 A 0.88 0.88 0.0 0 1 546.52 80.46 L 546.52 92.29 Q 546.52 93.97 544.83 93.97 L 527.79 93.97 Z"/><rect x="756.58" y="56.58" width="19.40" height="61.44" rx="1.07"/><ellipse cx="0.00" cy="0.00" transform="translate(862.84,109.25) rotate(-0.3)" rx="10.97" ry="9.57" style="visibility: hidden;"/><path d="M 878.211 106.892 C 878.211 113.587 872.111 119.015 864.585 119.015 C 857.061 119.015 850.96 113.587 850.96 106.892 C 850.96 100.197 857.061 94.768 864.585 94.768 C 872.111 94.768 878.211 100.197 878.211 106.892 Z M 864.451 112.141 C 867.351 112.209 869.772 109.895 869.858 106.975 C 869.944 104.056 867.663 101.634 864.763 101.566 C 861.863 101.498 859.442 103.811 859.356 106.731 C 859.27 109.652 861.552 112.073 864.451 112.141 Z" style="fill:#93dc63;"/><path d="M 683.993 87.73 C 683.993 105.238 669.8 119.43 652.293 119.43 C 634.785 119.43 620.593 105.238 620.593 87.73 C 620.593 70.223 634.785 56.03 652.293 56.03 C 669.8 56.03 683.993 70.223 683.993 87.73 Z M 651.981 101.456 C 658.727 101.632 664.358 95.586 664.558 87.95 C 664.758 80.315 659.451 73.982 652.705 73.805 C 645.958 73.628 640.327 79.675 640.127 87.31 C 639.927 94.946 645.234 101.279 651.981 101.456 Z"/></g><path fill="#333333" d="M 68.964 56.18 C 70.628 54.133 72.024 52.612 73.173 51.614 C 76.486 48.732 81.374 45.578 85.866 43.6 C 95.356 39.425 105.28 37.561 115.638 38.007 C 123.549 38.348 130.412 39.949 136.23 42.811 C 138.949 44.149 141.916 46.361 145.128 49.444 C 145.654 49.95 146.182 50.656 146.713 51.563 C 147.164 52.339 148.063 53.486 148.504 54.607 C 149.728 57.738 150.119 61.032 149.677 64.488 C 149.573 65.303 149.352 66.156 149.016 67.046 C 148.286 68.972 147.684 71.078 146.44 72.524 C 145.126 74.054 144.642 75.09 143.485 76.948 C 143.406 77.08 143.388 77.221 143.437 77.344 C 144.403 79.732 145.249 81.779 145.973 83.488 C 146.293 84.242 146.263 85.351 146.552 86.041 C 147.742 88.82 148.4 90.363 148.526 90.671 C 149.068 91.945 148.763 93.791 146.752 94.528 C 145.361 95.036 144.318 95.006 143.096 94.465 C 140.952 93.521 139.567 92.951 138.939 92.755 C 135.002 91.533 131.237 90.102 127.644 88.463 C 126.557 87.968 124.544 88.714 122.762 89.4 C 121.713 89.804 120.508 90.192 119.149 90.564 C 114.116 91.939 109.174 92.722 104.324 92.913 C 104.124 92.921 103.971 92.994 103.863 93.13 C 100.862 96.824 96.969 100.137 92.187 103.067 C 91.098 103.732 90.135 104.22 89.307 104.534 C 88.016 105.02 86.837 105.77 85.307 106.315 C 83.755 106.869 81.583 107.635 78.785 108.613 C 77.785 108.968 75.635 109.475 72.337 110.135 C 64.002 111.806 55.248 111.657 47.614 110.207 C 46.413 109.98 45.533 109.725 44.973 109.444 C 43.973 108.946 42.54 108.873 41.376 108.396 C 40.406 108.004 38.966 107.402 37.033 106.593 C 36.72 106.463 36.309 106.478 35.959 106.631 C 34.339 107.347 32.653 107.534 30.899 108.153 C 27.034 109.517 25.265 110.237 21.996 111.077 C 20.907 111.358 19.474 111.803 17.72 112.411 C 14.079 113.686 10.571 113.042 13.124 109.474 C 14.407 107.671 16.161 105.335 18.258 102.858 C 19.885 100.948 21.482 98.918 23.041 96.767 C 23.444 96.203 24.064 95.628 24.526 95.053 C 24.623 94.922 24.646 94.793 24.593 94.665 C 23.981 93.298 23.638 92.466 23.556 92.167 C 22.056 86.608 23.474 80.222 27.72 74.698 C 30.183 71.495 33.28 68.623 36.996 66.082 C 39.496 64.377 41.623 63.665 44.07 62.211 C 44.869 61.737 45.988 61.278 47.42 60.835 C 49.01 60.344 50.51 59.436 51.987 59.095 C 54.308 58.559 56.748 57.974 59.3 57.344 C 61.143 56.892 64.225 56.569 68.554 56.376 C 68.733 56.367 68.867 56.301 68.964 56.18 Z M 136.903 76.62 C 139.748 72.801 141.347 70.597 141.7 70.008 C 142.923 67.965 143.605 65.496 143.745 62.599 C 143.784 61.79 143.696 60.841 143.481 59.752 C 143.194 58.274 142.98 57.35 142.837 56.981 C 142.37 55.748 141.449 54.369 140.073 52.846 C 137.241 49.714 133.682 47.258 129.398 45.476 C 127.785 44.806 125.549 44.376 123.919 43.885 C 122.759 43.536 121.302 43.263 119.545 43.067 C 115.706 42.638 112.965 42.438 111.324 42.466 C 108.049 42.52 104.67 42.868 101.188 43.511 C 97.52 44.188 94.926 45.113 91.486 46.183 C 89.016 46.951 87.239 47.969 84.232 49.504 C 82.956 50.154 81.814 50.877 80.799 51.669 C 78.837 53.213 77.367 54.47 76.382 55.442 C 75.994 55.827 76.218 56.321 76.792 56.367 C 80.583 56.659 83.769 57.192 86.351 57.966 C 86.71 58.074 87.531 58.281 88.822 58.588 C 89.635 58.784 90.433 59.029 91.209 59.321 C 95.077 60.776 98.615 62.83 101.822 65.481 C 102.749 66.244 103.592 67.396 104.495 68.372 C 105.365 69.312 105.973 70.098 106.319 70.729 C 108.29 74.327 109.118 78.058 108.802 81.923 C 108.642 83.957 107.766 86.263 107.095 88.078 C 107.043 88.22 107.195 88.332 107.383 88.292 C 109.013 87.938 110.908 87.836 112.198 87.61 C 115.289 87.069 117.933 86.148 120.798 85.312 C 121.575 85.084 122.421 84.741 123.337 84.281 C 125.637 83.121 127.924 83.013 130.198 83.957 C 133.226 85.212 135.04 85.967 135.641 86.22 C 137.028 86.796 138.29 87.107 140.108 87.652 C 140.263 87.696 140.452 87.596 140.468 87.465 C 140.567 86.301 139.767 85.926 139.648 84.941 C 139.459 83.381 137.956 81.164 137.526 78.82 C 137.416 78.217 137.193 77.624 136.856 77.038 C 136.777 76.904 136.792 76.765 136.903 76.62 Z M 38.272 101.554 C 39.294 101.923 40.891 102.582 43.07 103.532 C 44.69 104.231 46.055 104.444 47.704 105.002 C 48.614 105.306 49.808 105.593 51.301 105.864 C 58.502 107.154 65.927 106.984 73.583 105.356 C 75.546 104.938 77.65 104.327 79.889 103.523 C 85.165 101.626 88.784 99.835 92.299 97.325 C 98.923 92.598 102.399 87.118 102.728 80.883 C 102.77 80.132 102.688 79.323 102.484 78.453 C 102.031 76.518 101.808 75.222 100.613 73.257 C 100.585 73.214 100.168 72.584 99.362 71.369 C 98.833 70.572 98.084 69.772 97.117 68.968 C 93.396 65.862 89.224 63.709 84.605 62.51 C 82.978 62.088 81.658 62.011 80.292 61.632 C 77.792 60.95 74.479 60.959 71.695 60.754 C 70.651 60.677 68.113 60.832 64.084 61.218 C 62.442 61.377 60.8 61.633 59.181 61.985 C 56.696 62.523 55.069 62.911 54.308 63.149 C 52.696 63.652 51.741 63.946 51.442 64.032 C 50.121 64.407 49.189 64.746 48.651 65.051 C 47.04 65.967 45.451 66.376 43.757 67.502 C 41.421 69.049 38.585 70.673 36.735 72.348 C 31.518 77.074 28.974 82.227 29.086 87.806 C 29.13 89.895 30.213 92.192 30.907 93.979 C 31.198 94.715 31.138 95.279 30.75 95.671 C 29.474 96.944 28.496 98.084 27.817 99.09 C 26.004 101.814 24.511 103.335 22.243 106.03 C 22.116 106.177 22.161 106.224 22.37 106.17 C 24.377 105.673 25.825 105.258 26.72 104.926 C 30.556 103.499 34.242 102.368 37.75 101.532 C 37.936 101.49 38.108 101.497 38.272 101.554 Z" style=""/></svg>